<?xml version="1.0" encoding="utf-8"?>
<!-- Generator: Adobe Illustrator 27.5.0, SVG Export Plug-In . SVG Version: 6.00 Build 0)  -->
<svg version="1.1" xmlns="http://www.w3.org/2000/svg" xmlns:xlink="http://www.w3.org/1999/xlink" x="0px" y="0px"
	 viewBox="0 0 500 500" style="enable-background:new 0 0 500 500;" xml:space="preserve">
<g id="BACKGROUND">
	<rect style="fill:transparent;" width="500" height="500"/>
</g>
<g id="OBJECTS">
	<ellipse style="fill:#1C1B2D;" cx="252.156" cy="440.672" rx="113.913" ry="9.995"/>
	<path style="fill:#474568;" d="M340.333,124.246V97.087H315.51c-1.731-8.394-5.044-16.205-9.599-23.128l17.566-17.566
		l-19.204-19.204l-17.566,17.566c-6.923-4.555-14.734-7.868-23.128-9.599V20.333H236.42v24.823
		c-8.394,1.731-16.205,5.044-23.128,9.599l-17.566-17.566l-19.204,19.204l17.566,17.566c-4.554,6.923-7.867,14.734-9.598,23.128
		h-24.823v27.159h24.823c1.731,8.394,5.044,16.205,9.598,23.128l-17.566,17.566l19.204,19.204l17.566-17.566
		c6.923,4.555,14.734,7.868,23.128,9.599V201h27.159v-24.823c8.393-1.731,16.205-5.044,23.128-9.599l17.566,17.566l19.204-19.204
		l-17.566-17.566c4.555-6.923,7.868-14.734,9.599-23.128H340.333z M250,146.092c-19.565,0-35.425-15.86-35.425-35.425
		c0-19.564,15.86-35.425,35.425-35.425c19.565,0,35.425,15.86,35.425,35.425C285.425,130.231,269.564,146.092,250,146.092z"/>
	<g style="opacity:0.4;">
		<g>
			<line style="fill:none;stroke:#FFFFFF;stroke-miterlimit:10;" x1="135.354" y1="362.551" x2="133.854" y2="362.551"/>
			
				<line style="fill:none;stroke:#FFFFFF;stroke-miterlimit:10;stroke-dasharray:3.0703,3.0703;" x1="130.783" y1="362.551" x2="64.771" y2="362.551"/>
			<polyline style="fill:none;stroke:#FFFFFF;stroke-miterlimit:10;" points="63.236,362.551 61.736,362.551 61.736,361.051 			"/>
			
				<line style="fill:none;stroke:#FFFFFF;stroke-miterlimit:10;stroke-dasharray:3.0333,3.0333;" x1="61.736" y1="358.017" x2="61.736" y2="220.003"/>
			<polyline style="fill:none;stroke:#FFFFFF;stroke-miterlimit:10;" points="61.736,218.486 61.736,216.986 63.236,216.986 			"/>
			
				<line style="fill:none;stroke:#FFFFFF;stroke-miterlimit:10;stroke-dasharray:2.9833,2.9833;" x1="66.219" y1="216.986" x2="243.728" y2="216.986"/>
			<polyline style="fill:none;stroke:#FFFFFF;stroke-miterlimit:10;" points="245.219,216.986 246.719,216.986 246.719,215.486 			
				"/>
			
				<line style="fill:none;stroke:#FFFFFF;stroke-miterlimit:10;stroke-dasharray:3.0413,3.0413;" x1="246.719" y1="212.445" x2="246.719" y2="122.728"/>
			<line style="fill:none;stroke:#FFFFFF;stroke-miterlimit:10;" x1="246.719" y1="121.207" x2="246.719" y2="119.707"/>
		</g>
	</g>
	<g style="opacity:0.4;">
		<g>
			<line style="fill:none;stroke:#FFFFFF;stroke-miterlimit:10;" x1="363.102" y1="378.551" x2="364.602" y2="378.551"/>
			
				<line style="fill:none;stroke:#FFFFFF;stroke-miterlimit:10;stroke-dasharray:3.0703,3.0703;" x1="367.672" y1="378.551" x2="433.684" y2="378.551"/>
			<polyline style="fill:none;stroke:#FFFFFF;stroke-miterlimit:10;" points="435.219,378.551 436.719,378.551 436.719,377.051 			
				"/>
			
				<line style="fill:none;stroke:#FFFFFF;stroke-miterlimit:10;stroke-dasharray:3.0333,3.0333;" x1="436.719" y1="374.017" x2="436.719" y2="236.003"/>
			<polyline style="fill:none;stroke:#FFFFFF;stroke-miterlimit:10;" points="436.719,234.486 436.719,232.986 435.219,232.986 			
				"/>
			
				<line style="fill:none;stroke:#FFFFFF;stroke-miterlimit:10;stroke-dasharray:2.9833,2.9833;" x1="432.236" y1="232.986" x2="254.728" y2="232.986"/>
			<polyline style="fill:none;stroke:#FFFFFF;stroke-miterlimit:10;" points="253.236,232.986 251.736,232.986 251.736,231.486 			
				"/>
			
				<line style="fill:none;stroke:#FFFFFF;stroke-miterlimit:10;stroke-dasharray:3.0413,3.0413;" x1="251.736" y1="228.445" x2="251.736" y2="138.728"/>
			<line style="fill:none;stroke:#FFFFFF;stroke-miterlimit:10;" x1="251.736" y1="137.207" x2="251.736" y2="135.707"/>
		</g>
	</g>
	<g>
		<path style="fill:#6A2DB7;" d="M308.893,75.635H191.107c-3.861,0-7.02,3.159-7.02,7.02v59.283c0,3.861,3.159,7.02,7.02,7.02
			h117.786c3.861,0,7.02-3.159,7.02-7.02V82.656C315.913,78.794,312.754,75.635,308.893,75.635z"/>
		<rect x="188.572" y="87.726" style="fill:#C3A4FF;" width="122.856" height="56.553"/>
		<rect x="193.642" y="96.306" style="fill:#FFC15E;" width="49.813" height="1.95"/>
		<rect x="193.642" y="100.986" style="fill:#FFC15E;" width="49.813" height="1.95"/>
		<rect x="193.642" y="105.667" style="fill:#FFC15E;" width="49.813" height="1.95"/>
		<rect x="193.642" y="110.347" style="fill:#FFC15E;" width="49.813" height="1.95"/>
		<rect x="193.642" y="115.027" style="fill:#FFC15E;" width="49.813" height="1.95"/>
		<rect x="193.642" y="123.413" style="fill:#FFC15E;" width="24.907" height="1.95"/>
		<rect x="193.642" y="126.668" style="fill:#FFC15E;" width="24.907" height="1.95"/>
		<rect x="193.642" y="129.923" style="fill:#FFC15E;" width="24.907" height="1.95"/>
		<rect x="193.642" y="133.178" style="fill:#FFC15E;" width="24.907" height="1.95"/>
		<circle style="fill:#FFC15E;" cx="193.642" cy="82.363" r="1.853"/>
		<path style="fill:#FFC15E;" d="M203.393,82.363c0,1.023-0.829,1.853-1.853,1.853c-1.023,0-1.853-0.829-1.853-1.853
			c0-1.023,0.829-1.853,1.853-1.853C202.563,80.51,203.393,81.34,203.393,82.363z"/>
		<circle style="fill:#FFC15E;" cx="209.438" cy="82.363" r="1.853"/>
		<rect x="254.095" y="93.576" style="fill:#34304F;" width="17.941" height="43.682"/>
		<rect x="280.227" y="94.746" style="fill:#34304F;" width="17.941" height="21.841"/>
		<rect x="280.227" y="119.707" style="fill:#FFC15E;" width="17.941" height="15.87"/>
	</g>
	<g>
		<path style="fill:#474568;" d="M103,254.18v-9.721h-8.885c-0.62-3.004-1.805-5.8-3.436-8.278l6.287-6.287l-6.874-6.874
			l-6.287,6.287c-2.478-1.63-5.274-2.816-8.278-3.436v-8.885h-9.721v8.885c-3.004,0.62-5.8,1.805-8.278,3.436l-6.287-6.287
			l-6.874,6.874l6.287,6.287c-1.63,2.478-2.816,5.274-3.436,8.278h-8.885v9.721h8.885c0.619,3.004,1.806,5.8,3.436,8.278
			l-6.287,6.287l6.874,6.874l6.287-6.287c2.478,1.63,5.274,2.816,8.278,3.436v8.885h9.721v-8.885c3.004-0.62,5.8-1.805,8.278-3.436
			l6.287,6.287l6.874-6.874l-6.287-6.287c1.63-2.478,2.816-5.274,3.436-8.278H103z M70.667,262c-7.003,0-12.68-5.677-12.68-12.68
			c0-7.003,5.677-12.68,12.68-12.68c7.003,0,12.68,5.677,12.68,12.68C83.346,256.323,77.67,262,70.667,262z"/>
		<circle style="fill:#474568;" cx="70.667" cy="249.32" r="6.793"/>
	</g>
	<g>
		<path style="fill:#474568;" d="M121.452,195.285v-4.073h-3.723c-0.26-1.259-0.757-2.43-1.44-3.469l2.634-2.634l-2.88-2.88
			l-2.634,2.634c-1.038-0.683-2.21-1.18-3.469-1.44v-3.723h-4.073v3.723c-1.259,0.26-2.43,0.757-3.469,1.44l-2.634-2.634l-2.88,2.88
			l2.634,2.634c-0.683,1.038-1.18,2.21-1.439,3.469h-3.723v4.073h3.723c0.26,1.259,0.757,2.43,1.439,3.469l-2.634,2.634l2.88,2.88
			l2.634-2.634c1.038,0.683,2.21,1.18,3.469,1.439v3.723h4.073v-3.723c1.259-0.26,2.43-0.757,3.469-1.439l2.634,2.634l2.88-2.88
			l-2.634-2.634c0.683-1.038,1.18-2.21,1.44-3.469H121.452z M107.905,198.561c-2.934,0-5.313-2.379-5.313-5.313
			c0-2.934,2.379-5.313,5.313-5.313c2.934,0,5.313,2.379,5.313,5.313C113.217,196.183,110.839,198.561,107.905,198.561z"/>
		<circle style="fill:#474568;" cx="107.905" cy="193.249" r="2.846"/>
	</g>
	<g style="opacity:0.63;">
		<path style="fill:#6A2DB7;" d="M159.227,81.261V70.009h-10.285c-0.717-3.478-2.09-6.714-3.977-9.583l7.278-7.278l-7.957-7.957
			l-7.278,7.278c-2.868-1.887-6.105-3.26-9.583-3.977V38.207h-11.253v10.285c-3.478,0.717-6.714,2.09-9.583,3.977l-7.278-7.278
			l-7.957,7.957l7.278,7.278c-1.887,2.868-3.26,6.105-3.977,9.583H84.371v11.253h10.285c0.717,3.478,2.09,6.714,3.977,9.583
			l-7.278,7.278l7.957,7.957l7.278-7.278c2.868,1.887,6.105,3.26,9.583,3.977v10.285h11.253v-10.285
			c3.478-0.717,6.714-2.09,9.583-3.977l7.278,7.278l7.957-7.957l-7.278-7.278c1.887-2.868,3.26-6.105,3.977-9.583H159.227z
			 M121.799,90.313c-8.106,0-14.677-6.571-14.677-14.678c0-8.106,6.571-14.678,14.677-14.678s14.678,6.571,14.678,14.678
			C136.476,83.741,129.905,90.313,121.799,90.313z"/>
		<circle style="fill:#6A2DB7;" cx="121.799" cy="75.635" r="7.864"/>
	</g>
	<g style="opacity:0.35;">
		<path style="fill:#FFC15E;" d="M379.464,170.973v-7.48h-6.837c-0.477-2.312-1.389-4.463-2.644-6.37l4.838-4.838l-5.289-5.289
			l-4.838,4.838c-1.907-1.255-4.058-2.167-6.37-2.644v-6.837h-7.48v6.837c-2.312,0.477-4.463,1.389-6.37,2.644l-4.838-4.838
			l-5.29,5.289l4.838,4.838c-1.254,1.907-2.167,4.058-2.644,6.37h-6.837v7.48h6.837c0.477,2.312,1.389,4.463,2.644,6.37
			l-4.838,4.838l5.29,5.289l4.838-4.838c1.907,1.254,4.058,2.167,6.37,2.644v6.837h7.48v-6.837c2.312-0.477,4.463-1.389,6.37-2.644
			l4.838,4.838l5.289-5.289l-4.838-4.838c1.254-1.907,2.167-4.058,2.644-6.37H379.464z M354.584,176.99
			c-5.389,0-9.757-4.368-9.757-9.757c0-5.389,4.368-9.757,9.757-9.757s9.757,4.368,9.757,9.757
			C364.341,172.622,359.973,176.99,354.584,176.99z"/>
		<path style="fill:#FFC15E;" d="M359.811,167.233c0,2.887-2.34,5.227-5.227,5.227s-5.227-2.34-5.227-5.227
			c0-2.887,2.34-5.227,5.227-5.227S359.811,164.346,359.811,167.233z"/>
	</g>
	<g>
		<path style="fill:#474568;" d="M407.218,254.18c0.62,3.004,1.806,5.8,3.436,8.278l-6.287,6.287l6.874,6.874l6.287-6.287
			c2.478,1.63,5.274,2.816,8.278,3.436v8.885h9.721v-8.885c3.004-0.62,5.8-1.805,8.278-3.436l6.287,6.287l6.874-6.874l-6.287-6.287
			c1.63-2.478,2.816-5.274,3.436-8.278H463v-9.721h-8.885c-0.62-3.004-1.805-5.8-3.436-8.278l6.287-6.287l-6.874-6.874l-6.287,6.287
			c-2.478-1.63-5.274-2.816-8.278-3.436v-8.885h-9.721v8.885c-3.004,0.62-5.8,1.805-8.278,3.436l-6.287-6.287l-6.874,6.874
			l6.287,6.287c-1.63,2.478-2.816,5.274-3.436,8.278h-8.885v9.721H407.218z M417.987,249.32c0-7.003,5.677-12.68,12.68-12.68
			c7.003,0,12.68,5.677,12.68,12.68c0,7.003-5.677,12.68-12.68,12.68C423.664,262,417.987,256.323,417.987,249.32z"/>
		<circle style="fill:#474568;" cx="430.667" cy="249.32" r="6.793"/>
	</g>
	<g>
		<path style="fill:#474568;" d="M422.824,194.971c0.207,1.005,0.604,1.94,1.149,2.769l-2.103,2.103l2.299,2.299l2.103-2.103
			c0.829,0.545,1.764,0.942,2.769,1.149v2.972h3.251v-2.972c1.005-0.207,1.94-0.604,2.769-1.149l2.103,2.103l2.299-2.299
			l-2.103-2.103c0.545-0.829,0.942-1.764,1.149-2.769h2.972v-3.251h-2.972c-0.207-1.005-0.604-1.94-1.149-2.769l2.103-2.103
			l-2.299-2.299l-2.103,2.103c-0.829-0.545-1.764-0.942-2.769-1.149v-2.972h-3.251v2.972c-1.005,0.207-1.94,0.604-2.769,1.149
			l-2.103-2.103l-2.299,2.299l2.103,2.103c-0.545,0.829-0.942,1.764-1.149,2.769h-2.972v3.251H422.824z M426.426,193.346
			c0-2.342,1.899-4.241,4.241-4.241c2.342,0,4.241,1.899,4.241,4.241c0,2.342-1.899,4.241-4.241,4.241
			C428.324,197.587,426.426,195.688,426.426,193.346z"/>
		<path style="fill:#474568;" d="M428.395,193.346c0,1.255,1.017,2.272,2.272,2.272c1.255,0,2.272-1.017,2.272-2.272
			c0-1.255-1.017-2.272-2.272-2.272C429.412,191.074,428.395,192.091,428.395,193.346z"/>
	</g>
	<g>
		<g>
			<g>
				<g>
					<path style="fill:#79788E;" d="M357.157,252.117H142.843c-5.734,0-10.426,4.692-10.426,10.426v119.589
						c0,5.734,4.692,10.426,10.426,10.426h214.314c5.734,0,10.426-4.692,10.426-10.426V262.543
						C367.583,256.809,362.892,252.117,357.157,252.117z"/>
					<rect x="132.417" y="270.652" style="fill:#6A2DB7;" width="235.167" height="102.523"/>
					<path style="fill:#955AF2;" d="M132.417,270.652v102.523c0,0,210.26-17.956,214.314-102.523H132.417z"/>
					<path style="fill:#C3A4FF;" d="M314.651,326.331h-71.607c-0.605,0-1.1-0.495-1.1-1.1l0,0c0-0.605,0.495-1.099,1.1-1.099h71.607
						c0.605,0,1.1,0.495,1.1,1.099l0,0C315.75,325.836,315.255,326.331,314.651,326.331z"/>
					<path style="fill:#C3A4FF;" d="M314.651,332.8h-71.607c-0.605,0-1.1-0.495-1.1-1.1l0,0c0-0.605,0.495-1.1,1.1-1.1h71.607
						c0.605,0,1.1,0.495,1.1,1.1l0,0C315.75,332.306,315.255,332.8,314.651,332.8z"/>
					<path style="fill:#C3A4FF;" d="M314.651,339.27h-71.607c-0.605,0-1.1-0.495-1.1-1.1l0,0c0-0.605,0.495-1.099,1.1-1.099h71.607
						c0.605,0,1.1,0.495,1.1,1.099l0,0C315.75,338.775,315.255,339.27,314.651,339.27z"/>
					<path style="fill:#C3A4FF;" d="M314.651,345.74h-71.607c-0.605,0-1.1-0.495-1.1-1.1l0,0c0-0.605,0.495-1.099,1.1-1.099h71.607
						c0.605,0,1.1,0.495,1.1,1.099l0,0C315.75,345.245,315.255,345.74,314.651,345.74z"/>
					<path style="fill:#C3A4FF;" d="M314.651,352.209h-71.607c-0.605,0-1.1-0.495-1.1-1.1l0,0c0-0.605,0.495-1.1,1.1-1.1h71.607
						c0.605,0,1.1,0.495,1.1,1.1l0,0C315.75,351.715,315.255,352.209,314.651,352.209z"/>
				</g>
				<ellipse style="fill:#79788E;" cx="250" cy="431.678" rx="51.951" ry="13.322"/>
				<path style="fill:#79788E;" d="M241.823,382.443c0,0,0.737,26.065-11.658,45.759h39.67c0,0-14.792-19.115-10.259-45.759H241.823
					z"/>
			</g>
			<path style="fill:#606072;" d="M235.174,418.355c0,0,21.218-6.416,23.09-25.798h-17.221
				C241.044,392.558,239.753,404.454,235.174,418.355z"/>
			<path style="fill:#34304F;" d="M254.261,382.443c0,2.23-1.808,4.039-4.039,4.039c-2.23,0-4.038-1.808-4.038-4.039
				c0-2.23,1.808-4.039,4.038-4.039C252.452,378.405,254.261,380.213,254.261,382.443z"/>
		</g>
		<g>
			<path style="fill:#6A2DB7;" d="M212.522,283.253h-94.234c-3.089,0-5.617,2.527-5.617,5.616v47.429
				c0,3.089,2.527,5.616,5.617,5.616h94.234c3.089,0,5.617-2.527,5.617-5.616v-47.429
				C218.139,285.78,215.611,283.253,212.522,283.253z"/>
			<rect x="116.26" y="292.926" style="fill:#C3A4FF;" width="98.29" height="45.245"/>
			<rect x="120.317" y="299.791" style="fill:#34304F;" width="39.852" height="1.56"/>
			<rect x="120.317" y="303.535" style="fill:#34304F;" width="39.852" height="1.56"/>
			<rect x="120.317" y="307.279" style="fill:#34304F;" width="39.852" height="1.56"/>
			<rect x="120.317" y="311.024" style="fill:#34304F;" width="39.852" height="1.56"/>
			<rect x="120.317" y="314.768" style="fill:#34304F;" width="39.852" height="1.56"/>
			<rect x="120.317" y="321.477" style="fill:#FFC15E;" width="19.926" height="1.56"/>
			<rect x="120.317" y="324.081" style="fill:#FFC15E;" width="19.926" height="1.56"/>
			<rect x="120.317" y="326.685" style="fill:#FFC15E;" width="19.926" height="1.56"/>
			<rect x="120.317" y="329.289" style="fill:#FFC15E;" width="19.926" height="1.56"/>
			<path style="fill:#FFC15E;" d="M121.799,288.635c0,0.819-0.664,1.482-1.482,1.482c-0.819,0-1.482-0.664-1.482-1.482
				s0.664-1.482,1.482-1.482C121.135,287.153,121.799,287.817,121.799,288.635z"/>
			<path style="fill:#FFC15E;" d="M128.117,288.635c0,0.819-0.664,1.482-1.482,1.482c-0.819,0-1.482-0.664-1.482-1.482
				s0.664-1.482,1.482-1.482C127.454,287.153,128.117,287.817,128.117,288.635z"/>
			<path style="fill:#FFC15E;" d="M134.436,288.635c0,0.819-0.664,1.482-1.482,1.482c-0.819,0-1.482-0.664-1.482-1.482
				s0.664-1.482,1.482-1.482C133.772,287.153,134.436,287.817,134.436,288.635z"/>
			<rect x="168.682" y="297.606" style="fill:#FFC15E;" width="14.353" height="34.948"/>
			<rect x="189.588" y="298.542" style="fill:#34304F;" width="14.353" height="17.474"/>
			<rect x="189.588" y="318.513" style="fill:#34304F;" width="14.353" height="12.697"/>
		</g>
		<g>
			<rect x="334.064" y="305.615" style="fill:none;stroke:#FFC15E;stroke-miterlimit:10;" width="56.936" height="56.936"/>
			<polyline style="fill:none;stroke:#FFC15E;stroke-width:2;stroke-miterlimit:10;" points="344.32,334.083 355.178,348.073 
				381.721,316.623 			"/>
		</g>
		<path style="fill:#858599;" d="M297.38,430.678c0,3.13-12.071,5.667-26.963,5.667c-14.891,0-26.962-2.537-26.962-5.667
			c0-3.13,12.071-5.667,26.962-5.667C285.309,425.011,297.38,427.548,297.38,430.678z"/>
	</g>
	<g>
		
			<rect x="158.059" y="139.462" style="fill:none;stroke:#C3A4FF;stroke-width:2;stroke-miterlimit:10;" width="36.028" height="36.028"/>
		<polyline style="fill:none;stroke:#C3A4FF;stroke-width:2;stroke-miterlimit:10;" points="164.549,157.476 171.42,166.329 
			188.216,146.428 		"/>
	</g>
	<g>
		<g>
			<g>
				<path style="fill:#6A2DB7;" d="M87.111,172.695H64.085c-3.21,0-5.813,2.603-5.813,5.813v56.19c0,3.211,2.603,5.813,5.813,5.813
					h23.026c3.211,0,5.813-2.603,5.813-5.813v-56.19C92.924,175.298,90.322,172.695,87.111,172.695z"/>
				<rect x="59.693" y="178.38" style="fill:#C3A4FF;" width="31.81" height="55.599"/>
				<rect x="71.673" y="175.538" style="fill:#8158FC;" width="7.851" height="0.677"/>
				<path style="fill:#8158FC;" d="M77.736,237.02c0,1.18-0.957,2.137-2.137,2.137c-1.18,0-2.137-0.957-2.137-2.137
					c0-1.18,0.957-2.137,2.137-2.137C76.779,234.883,77.736,235.84,77.736,237.02z"/>
			</g>
		</g>
		<g>
			<rect x="63.578" y="190.768" style="fill:#FFC15E;" width="24.041" height="12.217"/>
			<rect x="63.578" y="208.171" style="fill:#34304F;" width="23.449" height="0.375"/>
			<rect x="63.578" y="209.882" style="fill:#34304F;" width="23.449" height="0.375"/>
			<rect x="63.578" y="211.594" style="fill:#34304F;" width="23.449" height="0.375"/>
			<rect x="63.578" y="213.306" style="fill:#34304F;" width="23.449" height="0.375"/>
			<rect x="63.578" y="215.018" style="fill:#34304F;" width="23.449" height="0.375"/>
			<rect x="63.578" y="216.73" style="fill:#34304F;" width="23.449" height="0.375"/>
			<rect x="63.578" y="218.441" style="fill:#34304F;" width="23.449" height="0.375"/>
		</g>
	</g>
	<g>
		<g>
			<g>
				<path style="fill:#6A2DB7;" d="M414.901,185.419h-22.297c-3.109,0-5.629,2.52-5.629,5.629v54.411
					c0,3.109,2.52,5.629,5.629,5.629h22.297c3.109,0,5.629-2.52,5.629-5.629v-54.411C420.53,187.939,418.01,185.419,414.901,185.419
					z"/>
				<rect x="388.351" y="190.924" style="fill:#C3A4FF;" width="30.803" height="53.839"/>
				<rect x="399.951" y="188.172" style="fill:#8158FC;" width="7.602" height="0.655"/>
				<circle style="fill:#8158FC;" cx="403.753" cy="247.708" r="2.07"/>
			</g>
		</g>
		<rect x="392.725" y="201.436" style="fill:#6A2DB7;" width="7.227" height="32.816"/>
		<rect x="404.846" y="204.227" style="fill:#FFC15E;" width="10.392" height="10.392"/>
		<rect x="404.846" y="220.441" style="fill:#FFC15E;" width="10.392" height="10.392"/>
	</g>
	<g>
		<path style="fill:#6A2DB7;" d="M315.604,238.632h-47.157c-4.643,0-8.441,3.799-8.441,8.441v47.157
			c0,4.643,3.799,8.441,8.441,8.441h47.157c4.643,0,8.441-3.799,8.441-8.441v-47.157
			C324.046,242.431,320.247,238.632,315.604,238.632z"/>
		<rect x="265.06" y="251.349" style="fill:#C3A4FF;" width="53.931" height="44.519"/>
		<g>
			<circle style="fill:#FFC15E;" cx="291.842" cy="264.018" r="7.189"/>
			<path style="fill:#FFC15E;" d="M305.626,291.103h-27.2v-7.692c0-6.012,4.874-10.886,10.886-10.886h5.428
				c6.012,0,10.886,4.874,10.886,10.886V291.103z"/>
		</g>
		<circle style="fill:#FFC15E;" cx="266.664" cy="245.293" r="1.604"/>
		<path style="fill:#FFC15E;" d="M274.22,245.293c0,0.886-0.718,1.604-1.604,1.604c-0.886,0-1.604-0.718-1.604-1.604
			s0.718-1.604,1.604-1.604C273.502,243.689,274.22,244.407,274.22,245.293z"/>
		<circle style="fill:#FFC15E;" cx="278.567" cy="245.293" r="1.604"/>
	</g>
	<g>
		<path style="opacity:0.34;fill:#FFC15E;" d="M450.721,80.934h-81.358c-0.711,0-1.293-0.582-1.293-1.294v-3.009
			c0-0.711,0.582-1.293,1.293-1.293h81.358c0.711,0,1.293,0.582,1.293,1.293v3.009C452.014,80.352,451.432,80.934,450.721,80.934z"
			/>
		<path style="opacity:0.34;fill:#FFC15E;" d="M450.721,93.321h-81.358c-0.711,0-1.293-0.582-1.293-1.293v-3.009
			c0-0.711,0.582-1.294,1.293-1.294h81.358c0.711,0,1.293,0.582,1.293,1.294v3.009C452.014,92.739,451.432,93.321,450.721,93.321z"
			/>
		<path style="opacity:0.34;fill:#FFC15E;" d="M450.721,105.709h-58.427c-0.711,0-1.293-0.582-1.293-1.293v-3.009
			c0-0.711,0.582-1.293,1.293-1.293h58.427c0.711,0,1.293,0.582,1.293,1.293v3.009C452.014,105.127,451.432,105.709,450.721,105.709
			z"/>
		<path style="opacity:0.34;fill:#FFC15E;" d="M450.721,118.096h-67.706c-0.711,0-1.294-0.582-1.294-1.293v-3.212
			c0-0.711,0.582-1.294,1.294-1.294h67.706c0.711,0,1.293,0.582,1.293,1.294v3.212C452.014,117.514,451.432,118.096,450.721,118.096
			z"/>
		<path style="opacity:0.34;fill:#FFC15E;" d="M450.721,130.484h-81.358c-0.711,0-1.293-0.582-1.293-1.293v-3.009
			c0-0.711,0.582-1.293,1.293-1.293h81.358c0.711,0,1.293,0.582,1.293,1.293v3.009C452.014,129.902,451.432,130.484,450.721,130.484
			z"/>
	</g>
	<g>
		<path style="opacity:0.34;fill:#C3A4FF;" d="M111.196,385.345H71.81c-0.711,0-1.293-0.582-1.293-1.293v-0.211
			c0-0.711,0.582-1.293,1.293-1.293h39.386c0.711,0,1.293,0.582,1.293,1.293v0.211C112.489,384.763,111.907,385.345,111.196,385.345
			z"/>
		<path style="opacity:0.34;fill:#C3A4FF;" d="M111.196,391.539H71.81c-0.711,0-1.293-0.582-1.293-1.294v-0.211
			c0-0.711,0.582-1.293,1.293-1.293h39.386c0.711,0,1.293,0.582,1.293,1.293v0.211C112.489,390.956,111.907,391.539,111.196,391.539
			z"/>
		<path style="opacity:0.34;fill:#C3A4FF;" d="M103.765,397.732H71.81c-0.711,0-1.293-0.582-1.293-1.293l0,0
			c0-0.711,0.582-1.294,1.293-1.294h31.954c0.711,0,1.294,0.582,1.294,1.294l0,0C105.058,397.15,104.476,397.732,103.765,397.732z"
			/>
		<path style="opacity:0.34;fill:#C3A4FF;" d="M111.196,403.926H71.81c-0.711,0-1.293-0.582-1.293-1.293v-0.211
			c0-0.711,0.582-1.293,1.293-1.293h39.386c0.711,0,1.293,0.582,1.293,1.293v0.211C112.489,403.344,111.907,403.926,111.196,403.926
			z"/>
		<path style="opacity:0.34;fill:#C3A4FF;" d="M111.196,410.12H71.81c-0.711,0-1.293-0.582-1.293-1.293v-0.211
			c0-0.711,0.582-1.293,1.293-1.293h39.386c0.711,0,1.293,0.582,1.293,1.293v0.211C112.489,409.538,111.907,410.12,111.196,410.12z"
			/>
	</g>
</g>
</svg>
